<?xml version="1.0" encoding="utf-8"?>
<!-- Generator: Adobe Illustrator 22.0.1, SVG Export Plug-In . SVG Version: 6.00 Build 0)  -->
<svg version="1.1" id="Layer_1" xmlns="http://www.w3.org/2000/svg" xmlns:xlink="http://www.w3.org/1999/xlink" x="0px" y="0px"
	 viewBox="0 0 790.7 241.5" style="enable-background:new 0 0 790.7 241.5;" xml:space="preserve">
<style type="text/css">
	.st0{fill:none;stroke:#000000;stroke-width:5;stroke-miterlimit:10;}
</style>
<title>tonyFinalTOnyyAsset 9</title>
<g id="Layer_2_1_">
	<g id="Layer_3">
		<path class="st0" d="M0.9,2.5c69.9,27.8,151.8,13.3,225,0c-48,8.8,51,204.7-59.6,225.6C127,235.5-3.1,198.4,27,145.8
			c41.4-72.3,178.5,15.2,228.8-5.3c64.9-26.4-16.8-63.3-21-9.3c-4.1,52.7,40.7,13.1,45-5.1c-13.7,57.6,46.6-2.1,39.3-19.4
			c-2.6,16.2-7.3,45.2,1,50.2c1.2,0.7,2.8,0.2,3.5-1c0.1-0.1,0.1-0.2,0.2-0.3c6.2-15.7,23.1-45.9,36.9-56.6c1-0.8,2.5-0.6,3.3,0.4
			c0.2,0.3,0.4,0.7,0.5,1.1C384,245.8,446,86.8,447.9,2.5c0,0,2,197-31,231c0,0,33-152,131-199c0,0-106,84-95,139
			c0,19,90-40.6,90-58c0-20-60.6-20-45,29.1c1.7,5.6,5.9,10.2,11.3,12.4c13.6,5.8,38.9,8.6,33.7-52.5c0,0,7.1,55,18.1,56
			s24.9-54,18.9-60s-16,19-13,23s42-4,46-14s-13,49-4,50s71-44,71-44s-19-32-42,0c0,0-21.4,34.1,21.2,42.3c9,1.7,17.8-4.2,19.5-13.2
			c0.1-0.7,0.2-1.5,0.3-2.2l2.1-38.8c0,0,2,55,8,56s27-53,27-53s6,38,2,53s17-66,25-57s9,56,4,57s20-59,25-57s17,56,12,57"/>
	</g>
</g>
</svg>
