<?xml version="1.0" standalone="no"?>
<!DOCTYPE svg PUBLIC "-//W3C//DTD SVG 20010904//EN"
 "http://www.w3.org/TR/2001/REC-SVG-20010904/DTD/svg10.dtd">
<svg version="1.0" xmlns="http://www.w3.org/2000/svg"
 width="515.000000pt" height="515.000000pt" viewBox="0 0 515.000000 515.000000"
 preserveAspectRatio="xMidYMid meet">
<metadata>
Created by potrace 1.14, written by Peter Selinger 2001-2017
</metadata>
<g transform="translate(0.000000,515.000000) scale(0.100000,-0.100000)"
fill="#000000" stroke="none">
<path d="M2398 5105 c-2 -2 -32 -6 -68 -9 -36 -4 -77 -9 -92 -11 -135 -24
-170 -31 -210 -41 -13 -3 -36 -8 -53 -11 -16 -3 -38 -9 -47 -14 -10 -5 -18 -8
-18 -5 0 5 -196 -60 -280 -93 -62 -25 -229 -106 -305 -148 -43 -24 -210 -132
-240 -155 -160 -123 -382 -331 -455 -426 -14 -18 -35 -45 -48 -60 -25 -30
-147 -206 -176 -255 -68 -115 -195 -382 -198 -417 0 -3 -9 -27 -20 -55 -11
-27 -21 -54 -22 -60 -2 -5 -9 -30 -16 -55 -16 -54 -13 -43 -39 -160 -11 -52
-23 -111 -26 -130 -3 -19 -8 -42 -10 -50 -19 -70 -27 -473 -13 -615 6 -60 18
-134 43 -270 3 -16 13 -55 21 -85 8 -30 17 -63 19 -72 7 -31 77 -232 98 -283
30 -70 164 -332 177 -345 3 -3 32 -45 65 -95 65 -97 65 -98 96 -135 12 -14 37
-45 57 -70 100 -124 331 -337 467 -431 27 -19 54 -37 60 -42 87 -65 434 -248
470 -247 3 0 18 -6 33 -13 26 -14 140 -55 172 -63 8 -2 40 -10 70 -19 30 -9
66 -18 80 -21 14 -3 41 -9 60 -14 67 -17 187 -36 300 -48 144 -14 508 -7 607
12 11 3 37 7 57 10 31 5 75 14 206 41 8 2 27 8 43 14 15 6 27 9 27 7 0 -10
305 98 326 115 8 6 14 9 14 5 0 -3 62 26 137 65 121 61 390 231 418 264 6 6
26 23 47 38 54 40 273 254 288 282 7 13 17 22 22 19 4 -3 8 -1 8 4 0 4 13 24
30 42 16 18 30 36 30 39 0 3 14 21 30 40 17 18 30 37 30 40 0 4 8 16 17 27 44
48 143 216 218 368 31 65 58 124 59 130 1 6 9 27 18 46 14 32 40 105 44 123 1
4 2 8 4 10 1 1 3 9 5 17 1 8 10 36 19 63 14 42 40 154 52 227 3 14 9 48 14 75
31 162 34 625 5 735 -2 8 -7 35 -10 60 -18 132 -68 316 -132 485 -31 81 -149
333 -163 345 -3 3 -12 19 -20 35 -8 17 -17 32 -21 35 -3 3 -16 23 -29 45 -13
22 -36 56 -50 75 -15 19 -52 69 -83 110 -31 41 -96 117 -144 168 -49 51 -87
95 -84 97 2 3 0 5 -6 5 -5 0 -30 19 -55 43 -25 23 -63 56 -83 72 -21 17 -43
35 -49 40 -41 38 -241 173 -321 217 -123 68 -338 168 -359 168 -8 0 -17 4 -20
9 -3 5 -16 11 -28 14 -13 3 -75 21 -140 40 -64 20 -129 38 -145 41 -15 3 -39
7 -53 10 -62 14 -79 17 -150 27 -41 5 -86 13 -100 16 -27 5 -476 13 -482 8z"/>
</g>
</svg>
